<?xml version="1.0"?>
<svg xmlns="http://www.w3.org/2000/svg" width="512" height="512" viewBox="0 0 512 512" role="img" aria-label="Mortgage Geek app icon (cream)">
  <title>Mortgage Geek App Icon — Cream</title>
  <desc>Cream tile, Ravenswood charcoal house monogram, Arrow Red window.</desc>
  <rect width="512" height="512" rx="0" fill="#FBF9F5"></rect>
  <g transform="translate(-28.1 -138.6) scale(0.557)" shape-rendering="geometricPrecision">
    <path d="M 511 369 L 698 499 L 640 543 L 511 455 L 382 542 L 322 500 Z M 237 1047 L 312 1047 L 312 624 L 510 769 L 706 624 L 707 752 L 782 752 L 783 476 L 511 675 L 237 476 Z M 412 734 C 386 774 368 815 368 858 C 368 964 452 1046 520 1047 L 782 1047 L 782 824 L 621 824 C 608 809 589 799 569 799 C 540 799 517 823 517 856 C 517 889 543 912 573 912 C 594 912 610 902 621 886 L 650 886 L 650 907 L 677 907 L 677 886 L 706 886 L 707 969 L 541 970 C 485 970 445 920 445 857 C 445 826 456 799 473 778 L 415 735 Z M 554.4 839 C 563.2 839 570.4 846.2 570.4 855 C 570.4 863.8 563.2 871 554.4 871 C 545.6 871 538.4 863.8 538.4 855 C 538.4 846.2 545.6 839 554.4 839 Z" fill="#24272A" fill-rule="evenodd"></path>
    <path d="M 470 523 L 505 523 L 505 558 L 470 558 Z M 516 523 L 551 523 L 551 558 L 516 558 Z M 470 568 L 505 568 L 505 604 L 470 604 Z M 516 568 L 551 568 L 551 604 L 516 604 Z" fill="#CF3338"></path>
  </g>
</svg>